<svg xmlns="http://www.w3.org/2000/svg" xmlns:xlink="http://www.w3.org/1999/xlink" version="1.1" x="0px" y="0px" viewBox="0 0 96 120" style="enable-background:new 0 0 96 96;" xml:space="preserve"><path d="M48,69.3c-2.9,0-5.7-0.6-8.3-1.7c-2.5-1.1-4.8-2.6-6.8-4.6c-2-2-3.5-4.2-4.6-6.8c-1.1-2.6-1.7-5.4-1.7-8.3  c0-2.9,0.6-5.7,1.7-8.3c1.1-2.5,2.6-4.8,4.6-6.8s4.2-3.5,6.8-4.6c2.6-1.1,5.4-1.7,8.3-1.7c2.9,0,5.7,0.6,8.3,1.7  c2.5,1.1,4.8,2.6,6.8,4.6c2,2,3.5,4.2,4.6,6.8c1.1,2.6,1.7,5.4,1.7,8.3c0,2.9-0.6,5.7-1.7,8.3c-1.1,2.5-2.6,4.8-4.6,6.8  c-2,2-4.2,3.5-6.8,4.6C53.7,68.8,50.9,69.3,48,69.3z M48,32c-8.8,0-16,7.2-16,16s7.2,16,16,16s16-7.2,16-16S56.8,32,48,32z"/><path d="M48,96c-1.5,0-2.7-1.2-2.7-2.7v-16c0-1.5,1.2-2.7,2.7-2.7c1.5,0,2.7,1.2,2.7,2.7v16C50.7,94.8,49.5,96,48,96z"/><path d="M80,82.7c-0.7,0-1.4-0.3-1.9-0.8L66.9,70.7c-1-1-1-2.7,0-3.8c1-1,2.7-1,3.8,0l11.2,11.2c1,1,1,2.7,0,3.8  C81.4,82.4,80.7,82.7,80,82.7z"/><path d="M16,82.7c-0.7,0-1.4-0.3-1.9-0.8c-1-1-1-2.7,0-3.8l11.2-11.2c1-1,2.7-1,3.8,0c1,1,1,2.7,0,3.8L17.9,81.9  C17.4,82.4,16.7,82.7,16,82.7z"/><path d="M93.3,50.7h-16c-1.5,0-2.7-1.2-2.7-2.7c0-1.5,1.2-2.7,2.7-2.7h16c1.5,0,2.7,1.2,2.7,2.7C96,49.5,94.8,50.7,93.3,50.7z"/><path d="M18.7,50.7h-16C1.2,50.7,0,49.5,0,48c0-1.5,1.2-2.7,2.7-2.7h16c1.5,0,2.7,1.2,2.7,2.7C21.3,49.5,20.1,50.7,18.7,50.7z"/><path d="M68.8,29.9c-0.7,0-1.4-0.3-1.9-0.8c-1-1-1-2.7,0-3.8l11.2-11.2c1-1,2.7-1,3.8,0c1,1,1,2.7,0,3.8L70.7,29.1  C70.2,29.6,69.5,29.9,68.8,29.9z"/><path d="M27.2,29.9c-0.7,0-1.4-0.3-1.9-0.8L14.1,17.9c-1-1-1-2.7,0-3.8c1-1,2.7-1,3.8,0l11.2,11.2c1,1,1,2.7,0,3.8  C28.6,29.6,27.9,29.9,27.2,29.9z"/><path d="M48,21.3c-1.5,0-2.7-1.2-2.7-2.7v-16C45.3,1.2,46.5,0,48,0c1.5,0,2.7,1.2,2.7,2.7v16C50.7,20.1,49.5,21.3,48,21.3z"/><text x="0" y="111" fill="#000000" font-size="5px" font-weight="bold" font-family="'Helvetica Neue', Helvetica, Arial-Unicode, Arial, Sans-serif">Created by Oleg Mishutin</text><text x="0" y="116" fill="#000000" font-size="5px" font-weight="bold" font-family="'Helvetica Neue', Helvetica, Arial-Unicode, Arial, Sans-serif">from the Noun Project</text></svg>