<svg xmlns="http://www.w3.org/2000/svg" version="1.1" viewBox="-5.0 -10.0 110.0 135.0">
 <path d="m66.668 33.332c-1.5156 0-3.0195 0.13672-4.5039 0.41797-1.7734-9.7031-10.289-17.082-20.496-17.082-11.488 0-20.836 9.3438-20.836 20.832 0 1.8984 0.27344 3.8008 0.8125 5.6445-7.8633 3.0195-13.312 10.586-13.312 19.355 0 11.488 9.3477 20.832 20.832 20.832h37.5c13.785 0 25-11.215 25-25 0.003907-13.785-11.211-25-24.996-25zm0 41.668h-37.5c-6.8945 0-12.5-5.6055-12.5-12.5 0-6.3594 4.8086-11.672 11.184-12.344 1.4141-0.15234 2.6523-1.0078 3.2891-2.2812 0.63672-1.2695 0.57812-2.7773-0.15234-4-1.2109-2.0156-1.8203-4.1602-1.8203-6.375 0-6.8945 5.6055-12.5 12.5-12.5s12.5 5.6055 12.5 12.5c0 0.26172-0.046875 0.50781-0.078125 0.75781l-0.082032 0.64063c-0.16797 1.4883 0.47656 2.9492 1.6875 3.832 1.2109 0.87891 2.8008 1.043 4.1641 0.42969 2.1992-0.99219 4.4883-1.4922 6.8086-1.4922 9.1914 0 16.668 7.4766 16.668 16.668-0.003907 9.1875-7.4805 16.664-16.668 16.664z"/>
<text x="0.0" y="117.5" font-size="5.0" font-weight="bold" font-family="Arbeit Regular, Helvetica, Arial-Unicode, Arial, Sans-serif" fill="#000000">Created by YOSHA</text><text x="0.0" y="122.5" font-size="5.0" font-weight="bold" font-family="Arbeit Regular, Helvetica, Arial-Unicode, Arial, Sans-serif" fill="#000000">from Noun Project</text></svg>