<svg xmlns="http://www.w3.org/2000/svg" version="1.1" viewBox="-5.0 -10.0 110.0 135.0">
 <path d="m86.551 33.398c0-8.5117-6.9219-15.43-15.43-15.43-7.2695 0-13.371 5.0586-14.988 11.84-1.0508-1.8984-2.4219-3.6211-4.0898-5.0703-3.4102-2.9688-7.7812-4.6016-12.309-4.6016-9.0586 0-16.719 6.4102-18.41 15.148-1.0508-0.21875-2.1211-0.32812-3.1992-0.32812-8.6602 0-15.699 7.0391-15.699 15.699s7.0391 15.699 15.699 15.699h52.762c4.9219 0 8.9297-4.0117 8.9297-8.9297 0-4.2383-2.9688-7.8008-6.9492-8.7109 7.7422-0.875 13.684-7.3945 13.684-15.316zm-9.4414 24.023c0 3.4414-2.8008 6.2305-6.2305 6.2305l-52.77-0.003906c-7.1719 0-13-5.8281-13-13 0-7.1719 5.8281-13 13-13 1.3281 0 2.6406 0.19922 3.8984 0.60156 0.37891 0.12109 0.80078 0.058594 1.1406-0.16016 0.33984-0.21875 0.55859-0.57812 0.60156-0.98047 0.89844-8.1406 7.7617-14.281 15.969-14.281 7.9102 0 14.738 5.8906 15.891 13.699 0.058594 0.44141 0.33984 0.82031 0.73828 1.0117 0.39844 0.19922 0.85938 0.19141 1.25-0.03125 1.2891-0.71094 2.7617-1.0898 4.2383-1.0898 4.8516 0 8.7891 3.9414 8.7891 8.7891 0 1.3906-0.32812 2.7812-0.96094 4.0117-0.21094 0.42188-0.19922 0.92188 0.050782 1.3203 0.23828 0.39844 0.67969 0.64844 1.1484 0.64844 3.4453-0.007812 6.2461 2.793 6.2461 6.2344zm-3.8008-11.492c0.011718-0.23828 0.03125-0.48047 0.03125-0.71875 0-6.3398-5.1484-11.488-11.488-11.488-1.1602 0-2.3203 0.19141-3.4219 0.53125-0.019532-0.28125-0.039063-0.57031-0.039063-0.85938 0-7.0195 5.7109-12.73 12.73-12.73 7.0195 0 12.73 5.7109 12.73 12.73 0 6.2852-4.5234 11.496-10.543 12.535zm-3.5391-32.09v-5.5586c0-0.73828 0.60156-1.3516 1.3516-1.3516s1.3516 0.60156 1.3516 1.3516v5.5586c0 0.73828-0.60156 1.3516-1.3516 1.3516s-1.3516-0.61328-1.3516-1.3516zm14.219 6.6797c-0.53125-0.53125-0.53125-1.3789 0-1.9102l3.9297-3.9297c0.53125-0.53125 1.3789-0.53125 1.9102 0s0.53125 1.3789 0 1.9102l-3.9297 3.9297c-0.26172 0.26172-0.60938 0.39062-0.94922 0.39062-0.34766 0.011719-0.6875-0.12891-0.96094-0.39062zm13.59 12.879c0 0.73828-0.60156 1.3516-1.3516 1.3516h-5.5586c-0.73828 0-1.3516-0.60156-1.3516-1.3516s0.60156-1.3516 1.3516-1.3516h5.5586c0.75391 0.003906 1.3516 0.60156 1.3516 1.3516zm-7.75 16.801c0.53125 0.53125 0.53125 1.3789 0 1.9102-0.26172 0.26172-0.60938 0.39844-0.94922 0.39844-0.35156 0-0.69141-0.12891-0.94922-0.39062l-3.9297-3.9297c-0.53125-0.53125-0.53125-1.3789 0-1.9102s1.3789-0.53125 1.9102 0zm-37.418-33.609c-0.53125-0.53125-0.53125-1.3789 0-1.9102s1.3789-0.53125 1.9102 0l3.9297 3.9297c0.53125 0.53125 0.53125 1.3789 0 1.9102-0.26172 0.26172-0.60938 0.39844-0.94922 0.39844-0.35156 0-0.69141-0.12891-0.94922-0.39062zm-19.391 66.781c-0.17969-0.51172-0.60156-0.89062-1.1211-1.0312-0.51953-0.14062-1.0703-0.011719-1.4805 0.32812l-2.6211 2.2188c-1.9609 1.6602-2.5312 4.0508-1.4297 5.9492 0.58984 1.0312 1.5508 1.7617 2.7109 2.0703 0.39062 0.10156 0.78125 0.14844 1.1719 0.14844 0.76953 0 1.5312-0.19922 2.2109-0.60156 1.8984-1.1016 2.6016-3.4609 1.7305-5.8711zm-1.918 6.7695c-0.39844 0.23047-0.87891 0.28906-1.3281 0.17188-0.46094-0.12109-0.83984-0.41016-1.0703-0.82031-0.67969-1.1719 0.57812-2.3203 0.83984-2.5391l1.4609-1.2383 0.64844 1.8008c0.097656 0.3125 0.61719 1.9453-0.55078 2.625zm21.969-6.7695c-0.17969-0.51172-0.60156-0.89062-1.1211-1.0312s-1.0703-0.011719-1.4805 0.32812l-2.6211 2.2188c-1.9609 1.6602-2.5312 4.0508-1.4297 5.9492 0.58984 1.0312 1.5508 1.7617 2.7109 2.0703 0.39062 0.10156 0.78125 0.14844 1.1719 0.14844 0.76953 0 1.5312-0.19922 2.2109-0.60156 1.8984-1.1016 2.6016-3.4609 1.7305-5.8711zm-1.9219 6.7695c-0.39844 0.23047-0.87891 0.28906-1.3281 0.17188-0.46094-0.12109-0.83984-0.41016-1.0703-0.82031-0.67969-1.1719 0.57812-2.3203 0.83984-2.5391l1.4609-1.2383 0.64844 1.8008c0.10938 0.3125 0.62109 1.9453-0.55078 2.625zm-7.1875-18.762c-0.17969-0.51172-0.60156-0.89062-1.1211-1.0312-0.51953-0.14062-1.0703-0.011718-1.4805 0.32812l-2.6211 2.2188c-1.9609 1.6602-2.5312 4.0508-1.4297 5.9492 0.58984 1.0312 1.5508 1.7617 2.7109 2.0703 0.39062 0.10156 0.78125 0.14844 1.1719 0.14844 0.76953 0 1.5312-0.19922 2.2109-0.60156 1.8984-1.1016 2.6016-3.4609 1.7305-5.8711zm-1.9219 6.7695c-0.39844 0.23047-0.87891 0.28906-1.3281 0.17187-0.46094-0.12109-0.83984-0.41016-1.0703-0.82031-0.67969-1.1719 0.57812-2.3203 0.83984-2.5391l1.4609-1.2383 0.64844 1.8008c0.10156 0.32812 0.62109 1.9453-0.55078 2.625zm-18.141-6.7695c-0.17969-0.51172-0.60156-0.89062-1.1211-1.0312-0.51953-0.14062-1.0703-0.011718-1.4805 0.32812l-2.6211 2.2188c-1.9609 1.6602-2.5312 4.0508-1.4297 5.9492 0.58984 1.0312 1.5508 1.7617 2.7109 2.0703 0.39062 0.10156 0.78125 0.14844 1.1719 0.14844 0.76953 0 1.5312-0.19922 2.2109-0.60156 1.8984-1.1016 2.6016-3.4609 1.7305-5.8711zm-1.918 6.7695c-0.39844 0.23047-0.87891 0.28906-1.3281 0.17187-0.46094-0.12109-0.83984-0.41016-1.0703-0.82031-0.67969-1.1719 0.57812-2.3203 0.83984-2.5391l1.4609-1.2383 0.64844 1.8008c0.10938 0.32812 0.61719 1.9453-0.55078 2.625zm42.031-6.7695c-0.17969-0.51172-0.60156-0.89062-1.1211-1.0312s-1.0703-0.011718-1.4805 0.32812l-2.6211 2.2188c-1.9609 1.6602-2.5312 4.0508-1.4297 5.9492 0.58984 1.0312 1.5508 1.7617 2.7109 2.0703 0.39063 0.10156 0.78125 0.14844 1.1719 0.14844 0.76953 0 1.5312-0.19922 2.2109-0.60156 1.8984-1.1016 2.6016-3.4609 1.7305-5.8711zm-1.9219 6.7695c-0.39844 0.23047-0.87891 0.28906-1.3281 0.17187-0.46094-0.12109-0.83984-0.41016-1.0703-0.82031-0.67969-1.1719 0.57812-2.3203 0.83984-2.5391l1.4609-1.2383 0.64844 1.8008c0.10938 0.32812 0.62109 1.9453-0.55078 2.625z"/>
<text x="0.0" y="117.5" font-size="5.0" font-weight="bold" font-family="Arbeit Regular, Helvetica, Arial-Unicode, Arial, Sans-serif" fill="#000000">Created by Hanbai</text><text x="0.0" y="122.5" font-size="5.0" font-weight="bold" font-family="Arbeit Regular, Helvetica, Arial-Unicode, Arial, Sans-serif" fill="#000000">from Noun Project</text></svg>