<svg xmlns="http://www.w3.org/2000/svg" version="1.1" viewBox="-5.0 -10.0 110.0 135.0">
 <g fill-rule="evenodd">
  <path d="m49.285 62.867c-1.6523 0-2.9961 1.3438-2.9961 2.9961 0 1.6523 1.3438 2.9961 2.9961 2.9961h17.996c1.6523 0 2.9961-1.3438 2.9961-2.9961 0-0.30078-0.042969-0.59375-0.13281-0.87891-0.089843-0.29688-0.035156-0.61719 0.14844-0.86719 0.18359-0.25 0.47656-0.39844 0.78906-0.39844h4.1523c1.6523 0 2.9961-1.3438 2.9961-2.9961s-1.3438-2.9961-2.9961-2.9961h-17.996c-1.6523 0-2.9961 1.3438-2.9961 2.9961 0 0.30078 0.042968 0.59375 0.13281 0.87891 0.089844 0.29688 0.035156 0.61719-0.14844 0.86719-0.18359 0.25-0.47656 0.39844-0.78516 0.39844zm17.996 7.9453h-17.996c-2.7305 0-4.9492-2.2188-4.9492-4.9492 0-2.7266 2.2188-4.9492 4.9492-4.9492h3c0-0.0625-0.003906-0.12891-0.003906-0.19141 0-2.7305 2.2188-4.9492 4.9492-4.9492h17.996c2.7266 0 4.9492 2.2188 4.9492 4.9492 0 2.7266-2.2227 4.9492-4.9492 4.9492h-3c0 0.0625 0.003907 0.12891 0.003907 0.19141 0 2.7305-2.2227 4.9492-4.9492 4.9492z"/>
  <path d="m52.516 88.965c-1.0508 0-1.9062 0.85547-1.9062 1.9023 0 1.0508 0.85547 1.9062 1.9062 1.9062h13.055c1.0508 0 1.9062-0.85547 1.9062-1.9062 0-0.1875-0.027343-0.375-0.085937-0.55859-0.089844-0.29688-0.035156-0.61719 0.14844-0.86719 0.18359-0.25 0.47656-0.39844 0.78906-0.39844h3.0078c1.0508 0 1.9062-0.85547 1.9062-1.9062s-0.85547-1.9062-1.9062-1.9062h-13.055c-1.0508 0-1.9062 0.85547-1.9062 1.9062 0 0.1875 0.027344 0.37891 0.082031 0.55859 0.09375 0.29688 0.039063 0.61719-0.14844 0.86719-0.18359 0.25-0.47656 0.39844-0.78516 0.39844h-3.0117zm13.055 5.7656h-13.055c-2.1289 0-3.8594-1.7305-3.8594-3.8594s1.7305-3.8555 3.8594-3.8555h1.9102c0.066407-2.0703 1.7734-3.7305 3.8555-3.7305h13.055c2.1289 0 3.8594 1.7305 3.8594 3.8594 0 2.1289-1.7305 3.8594-3.8594 3.8594h-1.9062c-0.070313 2.0664-1.7734 3.7305-3.8594 3.7305z"/>
  <path d="m16.121 88.699c-1.1211 0-2.0391 0.91406-2.0391 2.0391s0.91406 2.0391 2.0391 2.0391h19.641c1.125 0 2.0391-0.91406 2.0391-2.0391s-0.91406-2.0391-2.0391-2.0391zm19.641 6.0312h-19.641c-2.2031 0-3.9922-1.7891-3.9922-3.9922s1.7891-3.9922 3.9922-3.9922h19.641c2.1992 0 3.9922 1.7891 3.9922 3.9922s-1.793 3.9922-3.9922 3.9922z"/>
  <path d="m12.117 75.621c-1.1094 0-2.0117 0.90234-2.0117 2.0117 0 1.1055 0.90234 2.0078 2.0117 2.0078h13.52c1.1094 0 2.0117-0.90234 2.0117-2.0078 0-0.20312-0.03125-0.39844-0.089844-0.58984-0.089844-0.29688-0.035156-0.61719 0.14844-0.86719 0.18359-0.25 0.47656-0.39844 0.78516-0.39844h3.1211c1.1055 0 2.0078-0.90234 2.0078-2.0078 0-1.1094-0.90234-2.0117-2.0078-2.0117h-13.52c-1.1055 0-2.0078 0.90234-2.0078 2.0117 0 0.19922 0.03125 0.39844 0.085937 0.58984 0.09375 0.29688 0.039063 0.61719-0.14453 0.86719s-0.47266 0.39844-0.78516 0.39844h-3.1172zm13.52 5.9727h-13.52c-2.1836 0-3.9648-1.7773-3.9648-3.9609 0-2.1836 1.7773-3.9648 3.9648-3.9648h2.0078c0.050781-2.1367 1.8086-3.8633 3.9609-3.8633h13.523c2.1836 0 3.9609 1.7773 3.9609 3.9648 0 2.1836-1.7773 3.9609-3.9609 3.9609h-2.0078c-0.054687 2.1367-1.8086 3.8633-3.9609 3.8633z"/>
  <path d="m72.07 75.609c-0.84375 0-1.5273 0.6875-1.5273 1.5273 0 0.84375 0.68359 1.5273 1.5273 1.5273h16.293c0.83984 0 1.5273-0.68359 1.5273-1.5273 0-0.83984-0.6875-1.5273-1.5273-1.5273zm16.293 5.0039h-16.293c-1.918 0-3.4805-1.5586-3.4805-3.4805 0-1.918 1.5625-3.4805 3.4805-3.4805h16.293c1.918 0 3.4805 1.5586 3.4805 3.4805 0 1.918-1.5586 3.4805-3.4805 3.4805z"/>
  <path d="m45.086 75.609c-0.83984 0-1.5273 0.6875-1.5273 1.5273 0 0.84375 0.6875 1.5273 1.5273 1.5273h10.266c0.84375 0 1.5273-0.68359 1.5273-1.5273 0-0.83984-0.68359-1.5273-1.5273-1.5273zm10.266 5.0039h-10.266c-1.918 0-3.4805-1.5586-3.4805-3.4805 0-1.918 1.5586-3.4805 3.4805-3.4805h10.266c1.918 0 3.4805 1.5586 3.4805 3.4805 0 1.918-1.5586 3.4805-3.4805 3.4805z"/>
  <path d="m36.16 48.605h-4.5625c-7.7031 0-13.977-6.2695-13.977-13.977 0-3.8164 1.5078-7.3789 4.2422-10.031 2.4609-2.3867 5.625-3.7578 9.0117-3.9258-0.37891-3.7305 0.74609-7.4492 3.1641-10.363 2.6602-3.1992 6.5742-5.0352 10.738-5.0352 4.707 0 9.1406 2.4141 11.707 6.3398 6.0312-0.17578 11.453 3.4844 13.531 9.1289 6.9805 0.80859 12.359 6.7812 12.359 13.883 0 4.7227-2.3594 9.0898-6.3125 11.688-0.44922 0.29688-1.0547 0.17188-1.3516-0.28125-0.29297-0.44922-0.17188-1.0547 0.28125-1.3516 3.3984-2.2344 5.4297-5.9922 5.4297-10.055 0-6.2969-4.9141-11.566-11.191-11.992-0.40234-0.027343-0.74219-0.29687-0.86328-0.67969-1.6836-5.3242-6.7539-8.7656-12.332-8.3633-0.36719 0.027344-0.71875-0.15625-0.91016-0.47266-2.1562-3.6367-6.1211-5.8906-10.344-5.8906-3.582 0-6.9492 1.5781-9.2383 4.3281-2.2969 2.7617-3.2383 6.3711-2.582 9.9023 0.054687 0.28906-0.027344 0.58984-0.21875 0.8125-0.19141 0.22656-0.47266 0.34766-0.76953 0.34375-3.2773-0.10156-6.3867 1.1016-8.7461 3.3867-2.3555 2.2812-3.6523 5.3477-3.6523 8.6289 0 6.6289 5.3945 12.023 12.023 12.023h4.5625c0.53906 0 0.97656 0.4375 0.97656 0.97656 0 0.53906-0.4375 0.97656-0.97656 0.97656z"/>
  <path d="m54.555 58.77h-10.195c-5.1641 0-9.3633-4.2031-9.3633-9.3633 0-2.5547 1.0117-4.9414 2.8438-6.7227 1.5625-1.5156 3.5469-2.418 5.6797-2.6055-0.14844-2.3789 0.60547-4.7266 2.1523-6.5859 1.7812-2.1445 4.4062-3.375 7.1953-3.375 3.0898 0 6 1.5508 7.7383 4.0898 0.03125-0.003906 0.0625-0.003906 0.089843-0.003906 3.8555 0 7.2969 2.3398 8.707 5.9258 4.5742 0.63281 8.0703 4.5898 8.0703 9.2734 0 3.4062-1.8516 6.5469-4.8359 8.1992-0.47266 0.26172-1.0664 0.089844-1.3281-0.38281-0.26172-0.47266-0.089844-1.0664 0.37891-1.3281 2.3633-1.3086 3.8281-3.793 3.8281-6.4883 0-3.8828-3.0312-7.1289-6.8984-7.3945-0.40234-0.027343-0.74609-0.29687-0.86328-0.67969-1.0391-3.2812-4.1641-5.4023-7.6055-5.1562-0.36719 0.027344-0.71875-0.16016-0.91016-0.47656-1.332-2.2383-3.7734-3.6328-6.375-3.6328-2.207 0-4.2812 0.97266-5.6914 2.668-1.4141 1.7031-1.9961 3.9297-1.5938 6.1055 0.054687 0.28906-0.027344 0.58984-0.21875 0.8125-0.19141 0.22266-0.46875 0.34375-0.76953 0.33984-2.0234-0.0625-3.9375 0.67969-5.3906 2.0859-1.4492 1.4062-2.25 3.2969-2.25 5.3203 0 4.0859 3.3242 7.4102 7.4102 7.4102h10.195c0.53906 0 0.97656 0.4375 0.97656 0.97656s-0.4375 0.97656-0.97656 0.97656z"/>
 </g>
<text x="0.0" y="117.5" font-size="5.0" font-weight="bold" font-family="Arbeit Regular, Helvetica, Arial-Unicode, Arial, Sans-serif" fill="#000000">Created by Zoya Khan</text><text x="0.0" y="122.5" font-size="5.0" font-weight="bold" font-family="Arbeit Regular, Helvetica, Arial-Unicode, Arial, Sans-serif" fill="#000000">from Noun Project</text></svg>